# xmcd
#
# Track frame offsets: 
#        150
#        4388
#        16965
#        29786
#        49801
#        64589
#        77516
#        90668
#        106377
#        122770
#        152060
#        170077
#
# Disc length: 2435 seconds
#
# Revision: 0
# Processed by: cddbd v1.5.2PL0 Copyright (c) Steve Scherf et al.
# Submitted via: ExactAudioCopy v0.95b4
#
DISCID=9709810c
DTITLE=Matthew Grimm and The Red Smear - Live At Gabe's Oasis 11-01-2005
DYEAR=2005
DGENRE=Country
TTITLE0=Intro
TTITLE1=Puppies
TTITLE2=Nothing To Say
TTITLE3=Slut
TTITLE4=St. Claire Of Cedar Rapids
TTITLE5=Kill The Poor
TTITLE6=One To Grow On
TTITLE7=My Girlfriend's Way Too Hot For Me
TTITLE8=She's Leaving You
TTITLE9=Honea Path
TTITLE10=White
TTITLE11=Fuck Fuck Fuck
EXTD=Gabe's Oasis\nIowa City, Iowa\nNovember 1st, 2005\nSource 1: SBD>
EXTD=NJB3@44Khz\nSource 2: Superlux HK8>EdirolUA-5>Toslink>NJB3@44Khz\n
EXTD=Xfer: JB3s>PC>CoolEditPro2.1>CDWave
EXTT0=Intro
EXTT1=Puppies\n
EXTT2=Nothing To Say
EXTT3=Slut
EXTT4=Saint Claire Of Cedar Rapids
EXTT5=Kill The Poor
EXTT6=Kill The Poor
EXTT7=My Gal is Fucking Hot!
EXTT8=She's Leaving You, dumbass
EXTT9=Honey Path
EXTT10=White
EXTT11=Fuck
PLAYORDER=
